<?xml version="1.0" standalone="no"?>
<!DOCTYPE svg PUBLIC "-//W3C//DTD SVG 20010904//EN"
 "http://www.w3.org/TR/2001/REC-SVG-20010904/DTD/svg10.dtd">
<svg version="1.0" xmlns="http://www.w3.org/2000/svg"
 width="1101.000000pt" height="1102.000000pt" viewBox="0 0 1101.000000 1102.000000"
 preserveAspectRatio="xMidYMid meet">
<metadata>
Created by potrace 1.16, written by Peter Selinger 2001-2019
</metadata>
<g transform="translate(0.000000,1102.000000) scale(0.100000,-0.100000)"
fill="#000000" stroke="none">
<path d="M5243 11013 c-40 -2 -73 -8 -73 -13 0 -6 -37 -10 -82 -10 -80 0 -216
-15 -423 -46 -169 -25 -416 -77 -572 -120 -136 -37 -223 -63 -283 -84 -19 -6
-48 -16 -65 -20 -33 -9 -188 -65 -220 -79 -11 -5 -45 -19 -75 -31 -30 -11 -66
-26 -80 -32 -14 -6 -38 -17 -55 -24 -16 -7 -78 -35 -136 -63 -59 -28 -111 -51
-117 -51 -6 0 -12 -3 -14 -7 -1 -5 -48 -30 -103 -58 -55 -27 -144 -75 -198
-107 -54 -32 -103 -58 -108 -58 -5 0 -9 -4 -9 -9 0 -5 -13 -14 -30 -21 -16 -7
-30 -16 -30 -21 0 -5 -4 -9 -9 -9 -12 0 -165 -101 -169 -112 -2 -4 -8 -8 -13
-8 -8 0 -141 -94 -192 -136 -9 -8 -22 -14 -27 -14 -6 0 -10 -4 -10 -8 0 -5
-27 -28 -60 -52 -33 -24 -60 -47 -60 -52 0 -4 -6 -8 -14 -8 -8 0 -16 -4 -18
-9 -2 -5 -23 -25 -48 -46 -96 -79 -178 -156 -334 -312 -173 -173 -177 -178
-281 -298 -38 -44 -72 -81 -77 -83 -4 -2 -8 -10 -8 -18 0 -8 -4 -14 -8 -14 -5
0 -28 -27 -52 -60 -24 -33 -47 -60 -52 -60 -4 0 -8 -4 -8 -10 0 -5 -6 -18 -14
-27 -42 -51 -136 -184 -136 -192 0 -5 -4 -11 -9 -13 -7 -2 -78 -107 -116 -170
-5 -9 -46 -76 -90 -150 -45 -73 -103 -178 -130 -233 -28 -55 -53 -101 -57
-103 -5 -2 -8 -8 -8 -14 0 -6 -23 -58 -51 -117 -28 -58 -56 -119 -63 -136 -7
-16 -18 -41 -24 -55 -6 -14 -21 -50 -32 -80 -12 -30 -26 -64 -31 -75 -14 -32
-70 -187 -79 -220 -4 -16 -14 -46 -20 -65 -42 -117 -109 -364 -143 -525 -167
-775 -167 -1540 -1 -2340 14 -67 25 -111 60 -247 38 -147 157 -516 183 -566 5
-9 17 -37 26 -62 21 -56 37 -94 60 -145 10 -22 24 -53 31 -70 16 -37 172 -355
184 -375 34 -55 100 -172 100 -176 0 -3 8 -17 19 -32 51 -73 131 -202 131
-211 0 -5 4 -11 8 -13 4 -1 34 -41 67 -88 33 -47 63 -86 67 -88 4 -2 8 -10 8
-18 0 -8 3 -14 8 -14 4 0 20 -20 35 -45 16 -25 33 -45 38 -45 5 0 9 -7 9 -15
0 -8 4 -15 8 -15 5 0 23 -21 41 -46 18 -25 43 -56 55 -69 11 -12 32 -36 45
-51 88 -105 175 -199 311 -334 132 -132 198 -194 335 -312 11 -9 31 -27 45
-38 14 -12 52 -43 85 -68 33 -26 66 -52 72 -58 7 -7 28 -22 48 -34 19 -12 35
-26 35 -31 0 -5 5 -9 11 -9 6 0 36 -19 67 -43 81 -61 288 -197 300 -197 6 0
12 -3 14 -8 3 -7 125 -82 133 -82 2 0 36 -19 77 -43 64 -37 338 -175 423 -212
91 -41 138 -60 225 -95 30 -11 64 -25 75 -30 11 -4 29 -11 40 -13 11 -3 45
-15 75 -27 30 -12 69 -25 85 -29 17 -4 40 -13 52 -19 12 -7 31 -12 42 -12 11
0 35 -6 53 -14 18 -8 62 -22 98 -31 36 -10 85 -23 110 -30 207 -57 541 -117
850 -151 221 -25 862 -25 1070 -1 214 26 367 47 440 62 36 7 103 21 150 30 47
9 111 23 143 31 31 8 85 21 120 30 97 24 215 58 287 84 19 6 49 16 65 20 25 7
81 27 240 85 11 4 34 13 50 20 17 8 55 23 85 35 197 79 505 235 730 371 153
93 152 92 167 106 7 6 22 15 33 18 11 3 20 11 20 16 0 5 6 9 14 9 8 0 16 3 18
8 5 11 66 52 78 52 5 0 10 4 10 9 0 5 20 21 45 35 25 15 45 31 45 36 0 6 7 10
15 10 8 0 15 3 15 8 0 4 21 21 45 37 25 17 45 33 45 38 0 4 7 7 15 7 8 0 15 3
15 8 0 4 34 34 75 67 41 33 75 63 75 67 0 5 4 8 9 8 30 0 591 562 591 591 0 5
3 9 8 9 4 0 34 34 67 75 33 41 63 75 68 75 4 0 7 7 7 15 0 8 3 15 8 15 4 0 21
20 37 45 17 24 33 45 38 45 4 0 7 7 7 15 0 8 4 15 9 15 5 0 21 20 35 45 15 25
31 45 36 45 6 0 10 5 10 10 0 12 41 73 53 78 4 2 7 10 7 18 0 8 4 14 9 14 5 0
13 9 16 20 3 11 12 26 18 33 7 7 17 22 24 32 172 282 193 320 297 530 90 181
120 247 156 335 12 30 28 69 35 85 7 17 23 57 34 90 12 33 25 69 30 80 13 32
32 88 41 120 5 17 14 46 20 65 35 98 64 202 114 408 50 202 85 411 123 732 24
208 24 850 -1 1070 -35 319 -91 631 -151 845 -7 28 -21 79 -30 115 -9 36 -23
80 -31 98 -8 18 -14 42 -14 53 0 11 -5 30 -12 42 -6 12 -15 35 -19 52 -8 34
-26 86 -45 130 -7 17 -27 68 -44 115 -33 89 -35 95 -70 175 -39 92 -47 109
-126 270 -43 88 -91 181 -105 206 -15 26 -42 73 -59 105 -18 33 -46 78 -61
102 -16 24 -29 45 -29 48 0 9 -149 232 -197 296 -24 31 -43 61 -43 67 0 6 -4
11 -9 11 -5 0 -19 16 -31 35 -12 20 -27 41 -34 48 -6 6 -32 39 -58 72 -25 33
-56 71 -68 85 -11 14 -31 36 -43 50 -12 14 -53 61 -91 104 -116 135 -376 391
-525 516 -29 25 -63 55 -76 66 -13 12 -44 37 -69 55 -25 18 -46 36 -46 41 0 4
-7 8 -15 8 -8 0 -15 4 -15 9 0 5 -20 22 -45 38 -25 15 -45 31 -45 36 0 4 -6 7
-14 7 -8 0 -16 4 -18 8 -1 4 -41 34 -88 67 -47 33 -86 63 -88 67 -2 4 -8 8
-13 8 -6 0 -49 26 -97 58 -93 61 -118 77 -142 89 -14 6 -146 82 -180 103 -19
11 -334 166 -380 187 -19 9 -48 21 -65 28 -16 7 -46 20 -65 28 -19 8 -55 23
-80 32 -25 9 -53 21 -62 26 -33 17 -307 110 -393 134 -27 8 -63 18 -80 24 -16
5 -57 17 -90 25 -33 8 -87 21 -120 30 -257 65 -721 137 -887 136 -45 0 -78 4
-80 11 -4 11 -456 20 -595 12z"/>
</g>
</svg>
