<?xml version="1.0" standalone="no"?>
<!DOCTYPE svg PUBLIC "-//W3C//DTD SVG 20010904//EN"
 "http://www.w3.org/TR/2001/REC-SVG-20010904/DTD/svg10.dtd">
<svg version="1.0" xmlns="http://www.w3.org/2000/svg"
 width="8104.000000pt" height="1128.000000pt" viewBox="0 0 8104.000000 1128.000000"
 preserveAspectRatio="xMidYMid meet">
<metadata>
Created by potrace 1.16, written by Peter Selinger 2001-2019
</metadata>
<g transform="translate(0.000000,1128.000000) scale(0.100000,-0.100000)"
fill="#000000" stroke="none">
<path d="M5300 11094 c-127 -6 -445 -47 -605 -79 -164 -32 -302 -63 -402 -91
-136 -37 -223 -63 -283 -84 -19 -6 -48 -16 -65 -20 -33 -9 -188 -65 -220 -79
-11 -5 -45 -19 -75 -31 -30 -11 -66 -26 -80 -32 -14 -6 -38 -17 -55 -24 -16
-7 -78 -35 -136 -63 -59 -28 -111 -51 -117 -51 -6 0 -12 -3 -14 -7 -1 -5 -48
-30 -103 -58 -55 -27 -144 -75 -198 -107 -54 -32 -103 -58 -108 -58 -5 0 -9
-4 -9 -9 0 -5 -13 -14 -30 -21 -16 -7 -30 -16 -30 -21 0 -5 -4 -9 -9 -9 -12 0
-165 -101 -169 -112 -2 -4 -8 -8 -13 -8 -8 0 -141 -94 -192 -136 -9 -8 -22
-14 -27 -14 -6 0 -10 -4 -10 -8 0 -5 -27 -28 -60 -52 -33 -24 -60 -47 -60 -52
0 -4 -6 -8 -14 -8 -8 0 -16 -4 -18 -9 -1 -5 -23 -25 -48 -46 -96 -79 -178
-156 -334 -312 -173 -173 -177 -178 -281 -298 -38 -44 -72 -81 -77 -83 -4 -2
-8 -10 -8 -18 0 -8 -4 -14 -8 -14 -5 0 -28 -27 -52 -60 -24 -33 -47 -60 -52
-60 -4 0 -8 -4 -8 -10 0 -5 -6 -18 -14 -27 -42 -51 -136 -184 -136 -192 0 -5
-4 -11 -9 -13 -7 -2 -78 -107 -116 -170 -5 -9 -46 -76 -90 -150 -45 -73 -103
-178 -130 -233 -28 -55 -53 -101 -57 -103 -5 -2 -8 -8 -8 -14 0 -6 -23 -58
-51 -117 -28 -58 -56 -119 -63 -136 -7 -16 -18 -41 -24 -55 -6 -14 -21 -50
-32 -80 -12 -30 -26 -64 -31 -75 -14 -32 -70 -187 -79 -220 -4 -16 -14 -46
-20 -65 -42 -119 -108 -361 -143 -525 -167 -775 -167 -1540 -1 -2340 14 -67
25 -111 60 -247 38 -147 157 -516 183 -566 5 -9 17 -37 26 -62 16 -43 29 -73
62 -150 9 -19 22 -48 29 -65 16 -37 172 -355 184 -375 34 -55 100 -172 100
-176 0 -3 8 -17 19 -32 51 -73 131 -202 131 -211 0 -5 4 -11 8 -13 4 -1 34
-41 67 -88 33 -47 63 -86 67 -88 4 -2 8 -10 8 -18 0 -8 3 -14 8 -14 4 0 20
-20 35 -45 16 -25 33 -45 38 -45 5 0 9 -7 9 -15 0 -8 4 -15 8 -15 5 0 23 -21
41 -46 18 -25 43 -56 55 -69 11 -12 32 -36 45 -51 88 -105 175 -199 311 -334
132 -132 198 -194 335 -312 11 -9 31 -27 45 -38 14 -12 52 -43 85 -68 33 -26
66 -52 72 -58 7 -7 28 -22 48 -34 19 -12 35 -26 35 -31 0 -5 5 -9 11 -9 6 0
36 -19 67 -43 81 -61 288 -197 300 -197 6 0 12 -3 14 -8 3 -7 125 -82 133 -82
2 0 36 -19 77 -43 64 -37 338 -175 423 -212 91 -41 138 -60 225 -95 30 -11 64
-25 75 -30 11 -4 29 -11 40 -13 11 -3 45 -15 75 -27 30 -12 69 -25 85 -29 17
-4 40 -13 52 -19 12 -7 31 -12 42 -12 11 0 35 -6 53 -14 18 -8 62 -22 98 -31
36 -10 85 -23 110 -30 207 -57 541 -117 850 -151 221 -25 862 -25 1070 -1 214
26 367 47 440 62 36 7 103 21 150 30 82 16 119 24 260 60 101 25 219 60 290
85 19 6 49 16 65 20 25 7 81 27 240 85 11 4 34 13 50 20 17 8 55 23 85 35 197
79 505 235 730 371 153 93 152 92 167 106 7 6 22 15 33 18 11 3 20 11 20 16 0
5 6 9 14 9 8 0 16 3 18 8 5 11 66 52 78 52 5 0 10 4 10 9 0 5 20 21 45 35 25
15 45 31 45 36 0 6 7 10 15 10 8 0 15 3 15 8 0 4 21 21 45 37 25 17 45 33 45
38 0 4 7 7 15 7 8 0 15 3 15 8 0 4 34 34 75 67 41 33 75 63 75 67 0 5 4 8 9 8
30 0 591 562 591 591 0 5 3 9 8 9 4 0 34 34 67 75 33 41 63 75 68 75 4 0 7 7
7 15 0 8 3 15 8 15 4 0 21 20 37 45 17 24 33 45 38 45 4 0 7 7 7 15 0 8 4 15
9 15 5 0 21 20 35 45 15 25 31 45 36 45 6 0 10 5 10 10 0 12 41 73 53 78 4 2
7 10 7 18 0 8 4 14 9 14 5 0 13 9 16 20 3 11 12 26 18 33 7 7 17 22 24 32 172
282 193 320 297 530 90 181 120 247 156 335 12 30 28 69 35 85 7 17 23 57 34
90 12 33 25 69 30 80 13 32 32 88 41 120 5 17 14 46 20 65 35 98 64 202 114
408 50 202 85 411 123 732 24 208 24 850 -1 1070 -35 319 -91 631 -151 845 -7
28 -21 79 -30 115 -9 36 -23 80 -31 98 -8 18 -14 42 -14 53 0 11 -5 30 -12 42
-6 12 -15 35 -19 52 -8 34 -26 86 -45 130 -7 17 -27 68 -44 115 -33 89 -35 95
-70 175 -39 92 -47 109 -126 270 -43 88 -91 181 -105 206 -15 26 -42 73 -59
105 -18 33 -46 78 -61 102 -16 24 -29 45 -29 48 0 9 -149 232 -197 296 -24 31
-43 61 -43 67 0 6 -4 11 -9 11 -5 0 -19 16 -31 35 -12 20 -27 41 -34 48 -6 6
-32 39 -58 72 -25 33 -56 71 -68 85 -11 14 -31 36 -43 50 -12 14 -53 61 -91
104 -116 135 -376 391 -525 516 -29 25 -63 55 -76 66 -13 12 -44 37 -69 55
-25 18 -46 36 -46 41 0 4 -7 8 -15 8 -8 0 -15 4 -15 9 0 5 -20 22 -45 38 -25
15 -45 31 -45 36 0 4 -6 7 -14 7 -8 0 -16 4 -18 8 -1 4 -41 34 -88 67 -47 33
-86 63 -88 67 -2 4 -8 8 -13 8 -6 0 -49 26 -97 58 -93 61 -118 77 -142 89 -14
6 -146 82 -180 103 -20 12 -338 168 -375 184 -16 7 -48 21 -70 31 -51 23 -89
39 -145 60 -25 9 -53 21 -62 26 -33 17 -307 110 -393 134 -27 8 -63 18 -80 24
-16 5 -59 17 -95 26 -36 9 -90 23 -120 30 -109 28 -307 67 -450 89 -285 44
-350 48 -765 51 -225 1 -444 1 -485 -1z m905 -290 c94 -9 204 -22 246 -30 42
-8 87 -14 100 -14 22 0 64 -8 244 -46 164 -35 218 -49 355 -89 25 -7 72 -20
105 -30 33 -10 75 -24 93 -31 18 -8 41 -14 50 -14 10 0 27 -7 38 -15 10 -8 27
-15 36 -15 10 0 32 -6 50 -14 18 -8 53 -22 78 -31 55 -22 93 -37 145 -60 22
-10 54 -23 70 -30 56 -24 420 -206 450 -226 17 -10 42 -24 58 -30 15 -6 27
-15 27 -20 0 -5 4 -9 9 -9 9 0 87 -46 159 -92 15 -10 37 -23 50 -29 12 -7 22
-16 22 -21 0 -4 5 -8 10 -8 12 0 73 -41 78 -52 2 -5 8 -8 14 -8 5 0 15 -6 23
-12 7 -7 56 -44 109 -82 53 -38 96 -73 96 -78 0 -4 7 -8 15 -8 8 0 15 -4 15
-8 0 -5 21 -23 46 -41 25 -18 56 -43 69 -55 13 -11 52 -46 87 -76 166 -145
355 -335 519 -525 10 -11 30 -33 44 -50 14 -16 40 -49 57 -72 17 -24 35 -43
40 -43 4 0 8 -7 8 -15 0 -8 4 -15 9 -15 5 0 22 -20 38 -45 15 -25 31 -45 36
-45 4 0 7 -4 7 -10 0 -5 7 -18 16 -27 8 -10 37 -49 64 -88 27 -38 53 -74 58
-80 4 -5 11 -17 15 -25 4 -8 29 -49 57 -90 27 -41 55 -84 60 -95 6 -11 24 -42
41 -70 16 -27 37 -63 45 -80 8 -16 26 -50 40 -75 73 -128 189 -375 249 -530 9
-25 21 -53 26 -62 15 -30 90 -247 126 -368 9 -30 22 -73 29 -95 17 -55 40
-146 58 -230 9 -38 21 -92 27 -120 7 -27 15 -72 19 -100 4 -27 12 -75 18 -105
97 -507 95 -1199 -4 -1760 -33 -192 -90 -438 -120 -525 -8 -23 -14 -48 -14
-57 0 -10 -6 -32 -14 -50 -7 -18 -28 -80 -47 -138 -18 -58 -38 -118 -45 -135
-7 -16 -22 -55 -34 -85 -11 -30 -25 -65 -31 -77 -5 -13 -13 -33 -18 -45 -12
-30 -49 -116 -66 -153 -12 -28 -128 -261 -163 -330 -9 -16 -18 -32 -21 -35 -3
-3 -15 -23 -26 -45 -11 -22 -31 -58 -45 -80 -41 -66 -49 -79 -56 -95 -4 -8
-15 -26 -25 -40 -9 -14 -45 -68 -79 -120 -35 -52 -67 -97 -72 -98 -4 -2 -8 -8
-8 -13 0 -6 -5 -15 -10 -22 -6 -7 -42 -55 -81 -107 -38 -52 -74 -96 -79 -98
-6 -2 -10 -10 -10 -17 0 -7 -4 -15 -9 -17 -5 -1 -33 -32 -62 -68 -134 -162
-252 -287 -457 -483 -62 -59 -115 -107 -117 -107 -2 0 -21 -16 -42 -36 -21
-19 -57 -49 -80 -66 -24 -17 -43 -35 -43 -40 0 -4 -6 -8 -14 -8 -8 0 -16 -4
-18 -10 -1 -5 -46 -41 -98 -79 -52 -39 -100 -75 -107 -81 -7 -5 -16 -10 -22
-10 -5 0 -11 -4 -13 -8 -5 -13 -251 -176 -298 -198 -8 -4 -22 -13 -30 -19 -14
-12 -38 -26 -170 -98 -54 -29 -286 -145 -345 -172 -134 -61 -167 -75 -178 -75
-7 0 -17 -4 -22 -8 -6 -4 -37 -18 -70 -31 -33 -12 -73 -28 -90 -35 -16 -7 -77
-27 -135 -45 -58 -19 -120 -40 -138 -47 -18 -8 -40 -14 -50 -14 -9 0 -34 -6
-57 -14 -87 -30 -333 -87 -525 -120 -561 -99 -1253 -101 -1760 -4 -30 6 -77
14 -105 18 -27 4 -72 12 -100 19 -27 6 -81 18 -120 27 -84 18 -175 41 -230 58
-22 7 -65 20 -95 29 -121 36 -338 111 -368 126 -9 5 -37 17 -62 26 -76 29 -99
38 -245 105 -133 61 -335 165 -415 215 -19 12 -42 25 -50 28 -8 4 -27 15 -42
25 -29 18 -151 95 -182 115 -11 7 -25 16 -30 20 -6 4 -42 30 -81 57 -38 27
-78 56 -87 64 -10 9 -22 16 -28 16 -5 0 -10 3 -10 8 0 4 -20 20 -45 35 -25 16
-45 33 -45 38 0 5 -7 9 -15 9 -8 0 -15 4 -15 8 0 5 -19 23 -42 40 -24 17 -56
43 -73 57 -16 14 -39 34 -50 44 -187 161 -383 356 -525 519 -30 35 -65 74 -76
87 -12 13 -37 44 -55 69 -18 25 -36 46 -41 46 -4 0 -8 7 -8 15 0 8 -4 15 -8
15 -5 0 -40 43 -78 96 -38 53 -75 102 -81 109 -7 8 -13 18 -13 23 0 6 -3 12
-7 14 -12 5 -53 66 -53 78 0 5 -4 10 -8 10 -5 0 -14 10 -21 22 -6 13 -19 35
-29 50 -46 72 -92 150 -92 159 0 5 -4 9 -9 9 -5 0 -14 12 -20 28 -15 36 -42
86 -50 92 -7 5 -180 356 -207 418 -53 122 -69 161 -89 212 -9 25 -23 60 -31
78 -8 18 -14 39 -14 47 0 7 -6 26 -14 42 -18 37 -36 89 -46 133 -4 19 -12 46
-17 60 -6 14 -17 50 -26 80 -8 30 -22 80 -31 110 -16 57 -34 133 -60 255 -38
179 -46 222 -46 243 0 13 -7 60 -15 105 -7 45 -21 153 -31 240 -22 217 -22
804 0 997 32 277 45 360 91 590 28 138 62 273 87 345 5 17 13 46 18 65 4 19
12 46 17 60 6 14 21 59 33 100 13 41 27 79 31 85 5 5 9 18 9 30 0 12 7 30 15
41 8 10 15 28 15 40 0 11 4 24 8 30 4 5 18 36 31 69 13 33 29 74 36 90 72 162
171 365 230 470 25 44 49 89 55 100 6 11 19 34 30 50 11 17 24 39 29 50 14 32
222 340 232 343 5 2 9 10 9 18 0 8 3 14 8 14 4 0 20 20 35 45 16 25 33 45 38
45 5 0 9 7 9 15 0 8 4 15 8 15 5 0 28 27 52 60 24 33 47 60 52 60 4 0 8 6 8
14 0 8 4 16 9 18 4 2 40 39 78 84 71 83 179 198 246 262 21 20 64 62 96 93 32
32 95 90 142 129 46 40 86 77 87 81 2 5 10 9 18 9 8 0 14 4 14 8 0 5 27 28 60
52 33 24 60 47 60 52 0 4 7 8 15 8 8 0 15 4 15 9 0 5 20 22 45 38 25 15 45 31
45 36 0 4 6 7 14 7 8 0 16 4 18 9 3 10 311 218 343 232 11 5 34 18 50 29 17
11 39 24 50 30 11 6 56 31 100 55 106 59 309 159 470 230 17 7 57 23 90 36 33
13 64 27 69 31 6 4 19 8 30 8 12 0 30 7 40 15 11 8 29 15 41 15 12 0 25 4 31
9 5 4 63 25 129 45 66 20 134 42 150 47 17 6 46 15 65 19 19 4 49 12 65 18 47
15 180 44 395 86 69 14 149 25 395 57 206 28 762 29 1040 3z"/>
<path d="M2240 8700 c-41 -9 -98 -29 -126 -44 -50 -27 -144 -108 -157 -137 -4
-7 -17 -29 -28 -48 -72 -120 -78 -331 -14 -476 56 -125 65 -140 129 -225 57
-74 135 -154 216 -220 30 -25 57 -48 58 -52 2 -5 10 -8 18 -8 8 0 14 -4 14 -8
0 -7 44 -36 134 -89 12 -7 46 -24 76 -39 30 -15 57 -30 58 -35 2 -5 10 -9 17
-9 14 0 26 -5 135 -53 69 -31 131 -56 248 -102 51 -19 101 -39 110 -44 9 -5
37 -17 62 -26 25 -10 77 -33 115 -52 39 -18 76 -33 83 -33 6 0 12 -4 12 -10 0
-5 7 -10 15 -10 8 0 36 -12 62 -27 27 -16 80 -44 118 -63 39 -19 72 -37 75
-40 11 -11 70 -50 75 -50 11 0 165 -104 165 -112 0 -4 7 -8 15 -8 8 0 15 -4
15 -8 0 -4 12 -15 28 -24 15 -10 41 -29 57 -43 17 -14 57 -49 90 -78 77 -66
198 -187 255 -255 25 -30 60 -70 77 -90 18 -21 33 -40 33 -43 0 -3 9 -17 20
-30 33 -37 130 -184 130 -196 0 -6 4 -13 8 -15 8 -3 35 -48 87 -143 15 -27 31
-54 36 -59 9 -10 859 836 859 854 0 6 6 10 13 10 6 0 21 13 32 30 11 16 26 32
33 35 19 7 35 -3 57 -35 11 -17 26 -30 33 -30 6 0 12 -4 12 -10 0 -18 850
-864 859 -854 5 5 21 32 36 59 72 132 183 308 227 359 5 6 19 25 31 42 62 87
238 272 352 371 33 29 74 64 90 78 17 14 42 33 58 43 15 9 27 20 27 24 0 4 7
8 15 8 8 0 15 3 15 8 0 10 153 112 168 112 7 0 12 4 12 9 0 5 9 13 20 16 11 3
26 12 33 18 6 7 44 28 82 47 38 19 91 47 118 63 26 15 54 27 62 27 8 0 15 5
15 10 0 6 6 10 12 10 7 0 44 15 83 33 38 19 90 42 115 52 25 9 53 21 63 26 9
5 81 34 159 65 78 30 167 67 198 80 105 48 121 54 135 54 7 0 15 4 17 9 2 5
28 20 58 35 30 14 64 32 75 38 108 68 130 84 133 90 2 5 10 8 17 8 7 0 15 3
17 8 2 4 28 27 58 52 81 66 159 146 216 220 64 85 73 100 129 225 64 145 58
356 -14 476 -11 19 -24 41 -28 48 -13 29 -107 110 -157 137 -64 33 -192 63
-271 64 -140 0 -396 -61 -570 -136 -16 -7 -42 -16 -57 -19 -16 -4 -28 -11 -28
-16 0 -5 -9 -9 -19 -9 -11 0 -26 -7 -35 -15 -8 -8 -21 -15 -28 -15 -8 0 -18
-4 -23 -9 -6 -4 -41 -25 -80 -46 -38 -21 -89 -50 -113 -66 -24 -16 -45 -29
-48 -29 -3 0 -31 -19 -62 -43 -31 -24 -74 -53 -94 -66 -21 -12 -38 -27 -38
-32 0 -5 -7 -9 -15 -9 -8 0 -15 -4 -15 -8 0 -5 -21 -23 -46 -42 -109 -78 -404
-370 -473 -468 -13 -19 -34 -45 -46 -58 -12 -13 -35 -43 -51 -66 -16 -24 -32
-44 -36 -46 -5 -2 -8 -10 -8 -18 0 -8 -4 -14 -8 -14 -5 0 -14 -10 -21 -22 -6
-13 -20 -36 -31 -53 -11 -16 -25 -40 -31 -52 -7 -13 -16 -23 -21 -23 -4 0 -8
-4 -8 -9 0 -5 -22 -47 -50 -94 -27 -47 -50 -90 -50 -95 0 -6 -3 -12 -7 -14
-13 -5 -133 -259 -133 -281 0 -7 -6 -21 -13 -32 -8 -11 -16 -29 -19 -40 -4
-11 -24 -72 -46 -135 -22 -63 -47 -142 -56 -175 -9 -33 -23 -82 -31 -110 -8
-27 -17 -66 -21 -85 -3 -19 -12 -59 -18 -88 l-12 -53 -279 277 c-154 152 -320
313 -370 357 -49 44 -100 91 -112 104 -12 13 -26 23 -30 23 -4 1 -19 14 -33
30 -30 37 -38 37 -78 0 -18 -16 -35 -30 -38 -30 -3 0 -15 -10 -27 -23 -12 -13
-62 -60 -112 -104 -49 -44 -216 -205 -370 -357 l-279 -277 -12 53 c-6 29 -15
69 -18 88 -22 113 -139 481 -172 542 -7 14 -14 31 -14 37 0 15 -117 268 -130
281 -3 3 -18 30 -34 60 -16 30 -32 57 -35 60 -3 3 -15 23 -26 45 -11 22 -22
42 -25 45 -10 9 -60 88 -81 128 -7 12 -16 22 -21 22 -4 0 -8 6 -8 14 0 8 -3
16 -7 18 -5 2 -21 22 -37 46 -16 23 -39 53 -51 66 -12 13 -33 39 -46 58 -69
97 -365 391 -473 468 -25 19 -46 37 -46 42 0 4 -7 8 -15 8 -8 0 -15 3 -15 8 0
4 -17 18 -38 32 -20 13 -63 44 -94 67 -31 24 -59 43 -62 43 -3 0 -24 13 -48
29 -24 16 -74 45 -113 66 -38 21 -74 42 -80 46 -5 5 -15 9 -23 9 -7 0 -20 7
-28 15 -9 8 -24 15 -35 15 -10 0 -19 4 -19 9 0 5 -12 12 -27 16 -16 3 -41 12
-58 19 -128 55 -230 85 -402 116 -129 24 -213 24 -313 0z"/>
<path d="M2320 5695 c-88 -13 -152 -33 -172 -53 -7 -7 -16 -12 -21 -12 -23 0
-110 -99 -139 -159 -32 -63 -33 -71 -33 -186 0 -90 4 -127 16 -150 9 -16 27
-52 40 -80 13 -27 27 -51 32 -53 4 -2 7 -10 7 -18 0 -8 4 -14 8 -14 4 0 15
-12 24 -27 21 -36 91 -108 147 -153 24 -19 49 -41 56 -47 8 -7 16 -13 20 -13
3 0 15 -8 26 -18 10 -11 32 -25 47 -33 15 -8 29 -17 32 -20 3 -3 30 -19 60
-35 30 -16 57 -32 58 -36 2 -5 9 -8 15 -8 10 0 100 -40 167 -75 14 -7 40 -16
57 -20 18 -3 35 -11 38 -16 4 -5 16 -9 28 -9 12 0 31 -7 41 -15 11 -8 30 -15
42 -15 13 0 25 -4 29 -9 3 -5 30 -15 61 -22 30 -7 57 -16 60 -21 3 -4 15 -8
27 -8 12 0 39 -6 62 -14 52 -19 135 -41 330 -89 33 -8 83 -21 110 -27 28 -7
70 -16 95 -21 25 -4 97 -17 160 -29 63 -12 140 -26 170 -30 30 -4 120 -18 200
-30 80 -12 181 -25 225 -30 44 -4 112 -13 150 -19 39 -6 149 -17 245 -26 96
-8 254 -22 350 -30 96 -8 228 -15 292 -15 l118 0 -5 -27 c-8 -52 -14 -2868 -7
-2929 5 -37 15 -69 26 -79 36 -36 156 -36 192 0 11 10 21 42 26 79 7 61 1
2877 -7 2929 l-4 27 117 0 c64 0 196 7 292 15 96 8 254 22 350 30 96 9 207 20
245 26 39 6 106 15 150 19 44 5 145 18 225 30 80 12 170 26 200 30 30 4 107
18 170 30 63 12 135 25 160 29 25 5 68 14 95 21 28 6 75 18 105 25 153 37 284
73 335 91 23 8 50 14 62 14 12 0 24 4 27 8 3 5 30 14 60 21 31 7 58 17 61 22
4 5 16 9 29 9 12 0 31 7 42 15 10 8 29 15 41 15 12 0 24 4 27 9 3 5 26 14 51
20 25 6 45 16 45 21 0 6 8 10 18 10 10 0 45 14 77 30 32 17 64 30 71 30 7 0
14 3 16 8 2 4 28 20 58 36 30 16 57 32 60 35 3 3 17 12 32 20 15 8 37 22 47
33 11 10 23 18 26 18 4 0 12 6 20 13 7 6 32 28 56 47 56 45 126 117 147 153 9
15 20 27 24 27 4 0 8 6 8 14 0 8 3 16 8 18 4 2 18 26 31 53 13 28 31 64 40 80
12 23 16 60 16 150 0 115 -1 123 -33 186 -29 60 -103 144 -142 162 -8 4 -22
11 -30 16 -102 60 -296 66 -545 17 -38 -7 -81 -18 -95 -24 -14 -6 -59 -20
-100 -33 -41 -12 -79 -26 -85 -31 -5 -4 -18 -8 -30 -8 -12 0 -25 -4 -30 -8 -6
-4 -37 -18 -70 -31 -33 -13 -88 -36 -123 -52 -34 -16 -66 -29 -71 -29 -5 0
-22 -6 -38 -14 -27 -14 -77 -37 -228 -104 -38 -17 -95 -42 -125 -55 -30 -14
-80 -35 -110 -47 -78 -32 -142 -60 -162 -71 -10 -5 -27 -9 -37 -9 -11 0 -22
-4 -26 -10 -3 -5 -20 -14 -38 -19 -41 -13 -116 -39 -142 -50 -22 -10 -189 -62
-270 -85 -27 -7 -75 -21 -106 -30 -31 -9 -65 -16 -77 -16 -12 0 -31 -4 -44 -9
-48 -19 -408 -75 -598 -93 -282 -27 -759 -14 -1035 28 -185 28 -340 56 -363
65 -13 5 -32 9 -44 9 -12 0 -46 7 -77 16 -31 9 -78 23 -106 30 -81 23 -248 75
-270 85 -26 11 -101 37 -142 50 -18 5 -35 14 -38 19 -4 6 -15 10 -26 10 -10 0
-27 4 -37 9 -21 12 -77 36 -197 86 -49 20 -94 41 -100 46 -5 5 -15 9 -22 9 -7
0 -44 14 -81 31 -37 18 -96 45 -132 61 -36 16 -78 36 -93 44 -16 8 -33 14 -38
14 -5 0 -37 13 -71 29 -35 16 -90 39 -123 52 -33 13 -64 27 -69 31 -6 4 -18 8
-28 8 -10 0 -26 4 -36 10 -26 15 -139 50 -160 50 -10 0 -23 5 -29 11 -16 16
-150 40 -353 62 -19 2 -73 -1 -120 -8z"/>
<path d="M23141 7769 c-68 -13 -139 -38 -211 -75 -108 -54 -104 -46 -69 -143
34 -95 73 -281 88 -421 51 -452 52 -1329 5 -2555 -23 -614 -29 -1149 -14
-1241 15 -93 42 -157 79 -183 94 -67 269 -49 467 49 l102 50 -23 57 c-47 115
-85 301 -105 503 -41 429 -39 1378 5 2595 8 226 18 561 22 746 8 418 -2 503
-70 577 -41 45 -165 63 -276 41z"/>
<path d="M24661 7769 c-68 -13 -139 -38 -211 -75 -108 -54 -104 -46 -69 -143
34 -95 73 -281 88 -421 51 -452 52 -1329 5 -2555 -23 -614 -29 -1149 -14
-1241 15 -93 42 -157 79 -183 94 -67 269 -49 467 49 l102 50 -23 57 c-47 115
-85 301 -105 503 -41 429 -39 1378 5 2595 8 226 18 561 22 746 8 418 -2 503
-70 577 -41 45 -165 63 -276 41z"/>
<path d="M41802 7760 c-63 -17 -213 -81 -250 -108 -10 -7 -7 -27 17 -98 85
-254 101 -485 101 -1434 0 -706 -8 -1042 -45 -1909 -29 -664 -31 -828 -10
-925 29 -138 73 -171 225 -171 108 1 201 25 310 80 99 52 94 44 70 105 -61
154 -94 363 -111 695 -12 229 -6 1303 7 1481 l7 80 116 76 c197 129 349 195
508 223 299 52 526 -43 635 -266 130 -264 161 -652 123 -1574 -24 -588 -20
-717 26 -811 58 -121 244 -123 492 -6 l106 50 -30 72 c-39 92 -74 229 -89 350
-19 149 -26 533 -17 920 17 714 -5 918 -127 1176 -150 317 -388 492 -730 534
-309 39 -638 -62 -954 -293 -30 -21 -56 -36 -59 -33 -7 7 13 555 37 1040 28
552 12 675 -99 740 -49 29 -165 32 -259 6z"/>
<path d="M51901 7769 c-68 -13 -139 -38 -211 -75 -108 -54 -104 -46 -69 -143
34 -95 73 -281 88 -421 51 -452 52 -1329 5 -2555 -23 -614 -29 -1149 -14
-1241 15 -93 42 -157 79 -183 94 -67 269 -49 467 49 l102 50 -23 57 c-47 115
-85 301 -105 503 -41 429 -39 1378 5 2595 8 226 18 561 22 746 8 418 -2 503
-70 577 -41 45 -165 63 -276 41z"/>
<path d="M36580 7739 c-306 -158 -1002 -195 -2300 -123 -162 9 -389 17 -505
18 -242 1 -304 -11 -375 -71 -99 -85 -89 -277 28 -536 l30 -65 58 28 c194 93
431 128 915 137 l317 6 7 -419 c11 -598 0 -1645 -25 -2309 -28 -761 -29 -1018
-6 -1110 21 -88 54 -138 109 -167 60 -32 209 -32 321 0 76 22 207 80 273 121
l32 20 -19 43 c-71 161 -122 507 -152 1018 -23 403 -13 1764 18 2624 l7 179
106 -6 c58 -4 283 -14 500 -24 317 -13 413 -14 487 -5 231 29 331 117 342 301
5 94 -14 175 -68 289 -21 45 -40 81 -42 81 -2 -1 -28 -15 -58 -30z"/>
<path d="M66577 7759 c-636 -56 -1223 -335 -1662 -790 -403 -416 -636 -891
-711 -1449 -24 -171 -23 -500 0 -675 63 -464 247 -845 562 -1159 434 -434
1037 -656 1784 -656 529 0 917 105 1129 306 77 72 116 138 160 271 92 274 151
786 138 1198 -12 377 -70 526 -223 571 -109 31 -222 3 -399 -102 -142 -83
-134 -71 -92 -140 65 -105 111 -248 139 -434 29 -191 10 -926 -26 -975 -16
-23 -230 -92 -370 -120 -399 -80 -886 -48 -1236 82 -373 139 -647 384 -810
726 -120 252 -170 501 -170 854 0 214 17 372 56 533 149 608 600 1094 1189
1283 379 122 858 129 1120 17 l46 -20 19 44 c49 115 73 211 77 316 4 100 3
108 -24 160 -74 144 -297 195 -696 159z"/>
<path d="M73865 7763 c-72 -15 -171 -51 -250 -89 l-93 -45 24 -60 c49 -128 85
-316 104 -549 30 -382 31 -2100 0 -2850 -8 -212 -33 -671 -43 -785 -2 -29 1
-31 141 -92 815 -360 1521 -282 2027 224 336 336 505 769 505 1293 0 317 -50
544 -173 784 -172 337 -455 562 -810 643 -101 23 -384 23 -486 -1 -193 -43
-375 -124 -570 -253 l-114 -75 7 334 c3 183 13 517 21 742 19 545 8 667 -70
735 -50 44 -139 62 -220 44z m1287 -1972 c323 -85 552 -360 625 -754 23 -124
23 -424 0 -557 -43 -254 -125 -442 -271 -627 -86 -108 -188 -191 -311 -253
-290 -146 -611 -131 -955 46 l-108 55 -6 92 c-12 200 -17 780 -10 1228 l7 471
66 49 c158 116 387 224 550 260 111 25 300 20 413 -10z"/>
<path d="M14185 7677 c-95 -32 -205 -111 -274 -197 l-33 -42 35 -36 c70 -74
168 -245 276 -483 148 -329 294 -717 539 -1434 340 -994 552 -1588 668 -1874
135 -333 279 -567 360 -587 126 -32 432 353 894 1126 81 135 200 340 265 455
65 116 119 211 120 213 1 1 51 -109 110 -245 260 -598 495 -1088 630 -1317 77
-129 167 -236 198 -236 62 0 256 262 519 700 648 1081 983 1781 1193 2495 108
368 161 666 172 962 9 250 -18 376 -98 447 -69 63 -183 81 -324 51 -84 -18
-195 -54 -195 -63 0 -4 11 -56 25 -116 110 -489 -4 -1225 -306 -1981 -178
-446 -500 -1094 -675 -1356 -72 -108 -183 -234 -215 -244 -42 -14 -129 98
-260 331 -88 157 -283 549 -407 820 l-92 200 49 106 c325 693 550 1308 627
1713 24 124 24 312 1 388 -44 143 -158 192 -359 153 -40 -8 -98 -23 -128 -34
-65 -23 -64 -21 -35 -177 27 -143 25 -378 -4 -550 -47 -280 -187 -737 -323
-1054 l-19 -46 -98 295 c-185 557 -295 838 -441 1135 -108 218 -202 357 -278
410 -39 27 -52 30 -115 29 -124 -1 -237 -72 -328 -206 l-38 -56 62 -64 c245
-250 481 -731 862 -1753 l97 -260 -42 -85 c-139 -283 -375 -702 -518 -920
-199 -304 -321 -430 -381 -393 -68 42 -212 382 -431 1013 -50 146 -191 573
-311 950 -401 1249 -440 1362 -541 1564 -60 120 -135 203 -211 236 -63 28
-166 35 -222 17z"/>
<path d="M77255 7676 c-33 -8 -85 -24 -115 -36 -79 -31 -230 -110 -230 -121 0
-4 9 -31 20 -58 43 -109 86 -314 110 -526 54 -481 58 -1446 10 -2660 -22 -565
-25 -837 -10 -935 6 -36 23 -89 38 -119 22 -45 36 -60 77 -80 44 -23 61 -26
150 -26 85 1 113 6 192 33 51 17 133 52 183 77 l90 45 -13 28 c-46 89 -96 315
-121 537 -30 266 -37 422 -43 943 l-6 522 1236 0 1235 0 -4 -287 c-3 -159 -9
-452 -15 -653 -22 -817 -22 -959 -5 -1039 21 -101 54 -153 113 -183 41 -20 63
-23 148 -23 138 1 278 42 422 125 l51 29 -33 94 c-60 168 -102 432 -125 797
-36 539 -24 2006 24 3015 6 121 -7 281 -29 353 -45 150 -193 197 -410 132 -73
-23 -295 -126 -295 -138 0 -4 13 -45 29 -92 86 -253 119 -572 128 -1227 l6
-443 -1236 0 -1237 0 5 88 c3 48 7 193 10 322 3 129 12 440 21 690 19 529 15
603 -39 709 -27 55 -40 69 -80 90 -59 30 -164 37 -252 17z"/>
<path d="M58920 6434 c-31 -32 -79 -63 -155 -100 -107 -52 -419 -164 -457
-164 -10 0 -58 20 -106 44 -245 123 -447 158 -701 120 -295 -43 -537 -185
-711 -416 -275 -365 -291 -926 -35 -1283 59 -83 184 -201 280 -265 44 -29 82
-54 84 -56 2 -2 -26 -41 -61 -89 -80 -107 -135 -216 -154 -308 -26 -121 1
-223 84 -325 24 -30 42 -55 40 -57 -2 -1 -28 -15 -58 -30 -205 -103 -387 -276
-479 -455 -75 -146 -104 -271 -103 -450 0 -334 130 -579 401 -758 142 -93 304
-153 511 -189 149 -26 508 -23 664 5 466 86 835 352 975 703 54 136 65 198 66
379 0 187 -11 246 -70 367 -109 221 -374 365 -920 497 -386 94 -556 169 -632
279 -24 34 -28 50 -28 106 0 55 6 76 34 128 53 99 63 105 152 93 233 -30 503
11 691 106 155 78 333 244 422 392 55 92 110 243 126 346 16 99 13 289 -5 374
-21 100 -67 215 -125 313 -28 45 -49 83 -48 84 2 0 46 10 98 22 233 52 337
126 370 265 18 73 7 185 -24 253 -27 60 -63 115 -74 115 -4 0 -27 -21 -52 -46z
m-1063 -519 c301 -57 503 -316 503 -645 0 -303 -165 -539 -445 -636 -73 -26
-92 -28 -225 -28 -133 0 -152 2 -225 28 -292 101 -460 363 -441 686 7 115 24
182 71 278 83 166 275 296 480 325 71 10 209 6 282 -8z m-370 -2649 c701 -194
1044 -408 1043 -650 -1 -170 -82 -307 -248 -416 -138 -91 -310 -138 -532 -147
-310 -13 -552 63 -721 225 -125 118 -179 246 -179 422 0 243 129 430 395 572
39 21 73 38 76 38 3 0 77 -20 166 -44z"/>
<path d="M49365 6343 c-268 -31 -444 -82 -620 -178 -393 -214 -679 -609 -773
-1070 -61 -298 -56 -648 13 -933 122 -503 486 -909 945 -1056 176 -56 270 -70
490 -70 214 0 313 15 482 72 439 150 841 568 998 1039 65 196 90 340 97 553
11 355 -39 601 -178 871 -193 373 -526 642 -911 734 -163 38 -401 55 -543 38z
m376 -466 c278 -72 504 -264 640 -542 98 -202 135 -400 126 -675 -11 -321 -84
-551 -243 -763 -163 -218 -371 -348 -623 -391 -468 -80 -886 137 -1097 569
-87 180 -124 350 -124 582 0 679 340 1157 886 1243 106 16 327 5 435 -23z"/>
<path d="M54395 6343 c-268 -31 -444 -82 -620 -178 -393 -214 -679 -609 -773
-1070 -61 -298 -56 -648 13 -933 122 -503 486 -909 945 -1056 176 -56 270 -70
490 -70 214 0 313 15 482 72 439 150 841 568 998 1039 65 196 90 340 97 553
11 355 -39 601 -178 871 -193 373 -526 642 -911 734 -163 38 -401 55 -543 38z
m376 -466 c278 -72 504 -264 640 -542 98 -202 135 -400 126 -675 -11 -321 -84
-551 -243 -763 -163 -218 -371 -348 -623 -391 -468 -80 -886 137 -1097 569
-87 180 -124 350 -124 582 0 679 340 1157 886 1243 106 16 327 5 435 -23z"/>
<path d="M20757 6309 c-134 -15 -308 -63 -411 -113 -208 -102 -316 -241 -316
-406 0 -123 49 -208 147 -256 53 -27 57 -27 67 -10 114 190 247 296 441 348
109 29 376 32 475 5 223 -60 365 -211 416 -442 17 -79 26 -316 13 -330 -4 -3
-49 -1 -100 5 -52 5 -177 13 -279 16 -483 15 -854 -103 -1113 -355 -213 -206
-311 -473 -294 -800 14 -271 106 -482 284 -652 180 -172 375 -244 658 -244
124 0 165 4 238 23 199 53 376 152 559 312 31 28 59 50 62 50 3 0 6 -18 6 -41
0 -65 29 -173 59 -221 52 -82 161 -108 281 -68 65 22 110 44 207 106 l51 33
-38 75 c-70 141 -110 299 -137 546 -17 159 -22 533 -13 1140 5 380 2 427 -46
609 -95 363 -328 580 -704 656 -93 19 -394 27 -513 14z m703 -1594 c63 -10
116 -18 117 -19 0 0 3 -187 4 -415 l3 -415 -55 -56 c-123 -126 -278 -219 -435
-262 -64 -17 -107 -21 -229 -21 -135 -1 -158 2 -227 25 -184 61 -304 192 -348
378 -19 77 -16 250 4 330 67 266 287 424 654 469 109 14 376 6 512 -14z"/>
<path d="M26697 6309 c-134 -15 -308 -63 -411 -113 -208 -102 -316 -241 -316
-406 0 -123 49 -208 147 -256 53 -27 57 -27 67 -10 114 190 247 296 441 348
109 29 376 32 475 5 223 -60 365 -211 416 -442 17 -79 26 -316 13 -330 -4 -3
-49 -1 -100 5 -52 5 -177 13 -279 16 -483 15 -854 -103 -1113 -355 -213 -206
-311 -473 -294 -800 14 -271 106 -482 284 -652 180 -172 375 -244 658 -244
124 0 165 4 238 23 199 53 376 152 559 312 31 28 59 50 62 50 3 0 6 -18 6 -41
0 -65 29 -173 59 -221 52 -82 161 -108 281 -68 65 22 110 44 207 106 l51 33
-38 75 c-70 141 -110 299 -137 546 -17 159 -22 533 -13 1140 5 380 2 427 -46
609 -95 363 -328 580 -704 656 -93 19 -394 27 -513 14z m703 -1594 c63 -10
116 -18 117 -19 0 0 3 -187 4 -415 l3 -415 -55 -56 c-123 -126 -278 -219 -435
-262 -64 -17 -107 -21 -229 -21 -135 -1 -158 2 -227 25 -184 61 -304 192 -348
378 -19 77 -16 250 4 330 67 266 287 424 654 469 109 14 376 6 512 -14z"/>
<path d="M37310 6314 c-315 -40 -554 -156 -765 -369 -318 -322 -475 -753 -475
-1305 0 -339 58 -612 182 -852 248 -484 725 -731 1358 -705 232 10 385 44 530
117 96 49 148 94 184 160 26 48 28 58 24 136 -4 75 -9 94 -47 169 -24 46 -49
89 -57 96 -10 8 -32 -2 -97 -45 -186 -124 -397 -186 -632 -186 -490 0 -837
275 -946 749 -12 52 -22 143 -26 230 l-6 143 29 -6 c44 -9 252 -34 399 -48
204 -19 733 -16 878 5 272 41 419 98 527 207 120 120 160 235 160 458 0 231
-51 413 -164 587 -143 220 -371 376 -635 436 -84 19 -341 33 -421 23z m315
-419 c276 -75 445 -297 445 -585 0 -208 -73 -292 -290 -331 -111 -21 -643 -18
-866 5 -161 15 -332 41 -341 50 -2 2 5 49 17 104 51 251 153 449 300 585 109
101 230 161 371 186 76 14 292 5 364 -14z"/>
<path d="M40420 6314 c-356 -42 -638 -173 -896 -417 -379 -358 -574 -834 -574
-1395 1 -392 96 -688 305 -949 194 -242 461 -400 787 -465 95 -19 145 -22 318
-22 174 0 221 4 310 23 263 56 422 176 452 339 16 84 0 164 -52 270 l-41 83
-27 -21 c-208 -159 -406 -220 -672 -207 -431 22 -739 274 -845 692 -79 309
-39 721 96 987 87 173 257 365 396 447 287 170 662 174 896 9 27 -20 29 -20
48 -2 36 32 107 147 124 201 22 68 17 192 -10 247 -38 79 -109 128 -230 161
-59 16 -306 28 -385 19z"/>
<path d="M44925 6304 c-11 -3 -50 -12 -87 -20 -38 -9 -68 -20 -68 -25 0 -5 13
-53 29 -107 35 -117 67 -296 81 -452 30 -334 22 -952 -21 -1735 -31 -564 -20
-726 55 -801 77 -77 242 -71 439 16 139 62 134 54 103 143 -100 290 -123 605
-107 1437 6 305 14 610 17 676 l6 121 94 63 c535 354 1045 328 1233 -62 71
-148 105 -306 123 -580 12 -180 5 -552 -23 -1251 -16 -407 4 -529 98 -584 96
-56 245 -37 439 56 57 27 104 52 104 54 0 2 -13 33 -29 68 -36 80 -76 239 -98
394 -15 103 -17 213 -19 760 -1 722 -10 860 -65 1080 -102 403 -390 678 -772
740 -329 53 -730 -61 -1043 -297 -28 -21 -53 -38 -56 -38 -3 0 -8 21 -11 48
-14 122 -88 231 -184 274 -46 20 -190 34 -238 22z"/>
<path d="M71605 6300 c-249 -33 -533 -160 -809 -363 -7 -6 -37 16 -85 62 -162
158 -337 250 -531 281 -284 44 -641 -62 -936 -281 -29 -21 -58 -39 -64 -39 -5
0 -10 13 -10 30 0 16 -10 60 -22 97 -18 54 -34 80 -78 125 -67 68 -122 88
-249 88 -79 0 -205 -22 -224 -40 -5 -4 3 -43 18 -86 14 -44 37 -133 50 -199
46 -233 50 -306 49 -890 0 -478 -4 -612 -28 -1025 -39 -665 -31 -817 48 -896
77 -77 242 -71 439 16 139 62 133 51 98 156 -61 182 -94 422 -107 769 -6 180
10 1185 22 1363 l6 82 105 71 c58 38 136 85 172 103 305 153 621 153 807 1
123 -101 192 -299 224 -645 12 -120 15 -767 5 -950 -3 -58 -10 -233 -15 -390
-11 -339 -3 -448 38 -530 38 -76 78 -95 197 -94 107 0 174 18 303 81 72 35 92
49 88 62 -3 9 -19 54 -35 101 -61 174 -80 369 -81 820 -1 504 -17 1039 -36
1210 -9 85 -18 166 -18 179 -1 20 17 35 111 91 203 123 372 177 578 187 146 6
236 -10 344 -63 210 -104 316 -331 352 -760 12 -146 7 -581 -11 -889 -18 -306
-24 -755 -11 -829 26 -148 76 -191 221 -191 98 0 168 20 315 90 l94 45 -24 53
c-101 222 -132 577 -113 1287 15 556 5 739 -51 955 -66 254 -208 474 -382 593
-200 136 -490 197 -764 162z"/>
<path d="M28960 6252 c-70 -20 -223 -84 -254 -107 -18 -14 -18 -16 7 -78 100
-249 118 -503 92 -1263 -10 -317 -15 -584 -11 -657 36 -615 289 -975 751
-1068 112 -23 360 -18 468 9 230 57 435 195 606 408 l58 72 7 -117 c11 -202
40 -279 116 -319 82 -43 198 -22 396 72 52 25 94 47 94 49 0 3 -11 30 -25 61
-111 251 -140 664 -114 1621 18 678 18 1068 0 1158 -16 79 -42 123 -91 151
-28 17 -52 21 -120 21 -99 -1 -176 -23 -313 -92 -73 -36 -87 -47 -81 -61 24
-54 75 -221 88 -292 63 -332 79 -860 49 -1619 l-6 -164 -58 -77 c-110 -145
-254 -278 -380 -348 -206 -116 -486 -134 -667 -43 -186 94 -269 286 -303 708
-14 174 -7 688 16 1118 28 532 19 729 -35 805 -45 63 -171 85 -290 52z"/>
<path d="M59532 6244 c-71 -35 -133 -109 -192 -229 -43 -86 -100 -252 -100
-289 0 -7 20 -22 45 -34 128 -62 286 -281 448 -622 139 -291 400 -919 667
-1609 l121 -313 -86 -202 c-163 -378 -302 -605 -469 -765 -20 -19 -36 -39 -36
-44 0 -23 118 -184 179 -245 107 -107 211 -145 278 -103 53 33 120 128 193
276 89 180 121 261 305 780 283 799 405 1105 933 2345 236 557 317 786 309
876 -14 137 -110 215 -249 200 -54 -5 -286 -75 -316 -95 -11 -7 -11 -19 -1
-70 32 -167 -56 -516 -284 -1127 -165 -440 -486 -1220 -497 -1207 -10 12 -215
503 -330 793 -56 140 -205 532 -332 870 -126 338 -246 645 -265 682 -76 146
-195 195 -321 132z"/>
</g>
</svg>
